<svg width="20" height="21" viewBox="0 0 20 21" fill="none" xmlns="http://www.w3.org/2000/svg">
<path d="M8.71418 5.25059C9.09335 5.11934 9.09335 4.886 8.71418 4.74017L6.65794 3.95267C6.29336 3.82142 5.87044 3.3985 5.72461 3.01934L4.93711 0.963085C4.80586 0.583919 4.57252 0.583919 4.42669 0.963085L3.63919 3.01934C3.50794 3.38392 3.08502 3.80684 2.70586 3.95267L0.649609 4.74017C0.270443 4.87142 0.270443 5.10475 0.649609 5.25059L2.70586 6.03809C3.07044 6.16934 3.49336 6.59225 3.63919 6.97142L4.42669 9.02764C4.55794 9.4068 4.79127 9.4068 4.93711 9.02764L5.72461 6.97142C5.85586 6.60684 6.27877 6.18392 6.65794 6.03809L8.71418 5.25059Z" fill="#9D34DA"/>
<path d="M18.7328 12.4548C19.8995 12.1632 19.8995 11.6819 18.7328 11.3903L16.1516 10.7486C14.9849 10.4569 13.7891 9.26109 13.4974 8.09443L12.8557 5.51318C12.5641 4.34652 12.0828 4.34652 11.7911 5.51318L11.1495 8.09443C10.8578 9.26109 9.66197 10.4569 8.4953 10.7486L5.91406 11.3903C4.7474 11.6819 4.7474 12.1632 5.91406 12.4548L8.4953 13.0965C9.66197 13.3882 10.8578 14.584 11.1495 15.7507L11.7911 18.3319C12.0828 19.4986 12.5641 19.4986 12.8557 18.3319L13.4974 15.7507C13.7891 14.584 14.9849 13.3882 16.1516 13.0965L18.7328 12.4548Z" fill="#9D34DA"/>
</svg>
