<svg width="20" height="21" viewBox="0 0 20 21" fill="none" xmlns="http://www.w3.org/2000/svg">
<path d="M8.74961 17.0851H2.53711C2.08711 17.0851 1.71211 16.7101 1.71211 16.2601V8.48506C1.71211 7.99756 1.96211 7.72256 2.43711 7.72256H2.81211V6.32256H2.03711C0.999609 6.32256 0.162109 7.16006 0.162109 8.19756V16.6351C0.162109 17.6726 0.999609 18.5101 2.03711 18.5101H8.74961V17.0851ZM17.9746 6.31006H17.1996V7.71006H17.6121C18.0621 7.71006 18.2871 7.97256 18.2871 8.38506V16.2726C18.2871 16.7226 17.9246 17.0976 17.4621 17.0976H11.2496V18.4976H17.9746C19.0121 18.4976 19.8496 17.6601 19.8496 16.6226V8.18506C19.8496 7.14756 19.0121 6.31006 17.9746 6.31006Z" fill="#EA4E43"/>
<path d="M16.4133 1.93506C14.2508 2.22256 11.6633 3.07256 10.0133 4.08506C8.35078 3.07256 5.76328 2.22256 3.61328 1.93506V14.7476C5.38828 14.9601 7.22578 15.3726 9.08828 16.0976L10.0258 16.5101L10.9633 16.0976C12.8258 15.3726 14.6633 14.9476 16.4383 14.7476V1.93506H16.4133ZM5.47578 13.3476V4.09756C6.81328 4.33506 8.36328 4.93506 9.07578 5.51006V14.3601C8.03828 13.9351 6.58828 13.5476 5.47578 13.3476ZM14.5383 13.3476C13.4383 13.5476 11.9758 13.9351 10.9383 14.3601V5.51006C11.6383 4.92256 13.2008 4.33506 14.5383 4.09756V13.3476Z" fill="#EA4E43"/>
</svg>
