<svg width="20" height="21" viewBox="0 0 20 21" fill="none" xmlns="http://www.w3.org/2000/svg">
<path d="M16.4161 5.98351L11.3835 1.90596C11.0896 1.66106 10.71 1.52637 10.3182 1.52637H4.63654C3.70592 1.52637 2.95898 2.27331 2.95898 3.20392V16.9917C2.95898 17.9223 3.71817 18.6692 4.63654 18.6692H15.3631C16.2937 18.6692 17.0406 17.9223 17.0406 16.9917V7.29371C17.0406 6.79167 16.808 6.30188 16.4161 5.98351ZM11.0651 3.20392L15.3018 6.90188C15.4733 7.04882 15.3753 7.33045 15.1427 7.33045H11.5182C11.2733 7.33045 11.0651 7.13453 11.0651 6.87739V3.20392ZM14.6774 16.9794H5.31C5.02837 16.9794 4.79572 16.7468 4.79572 16.4529V3.7182C4.79572 3.43657 5.02837 3.20392 5.31 3.20392H9.5345V7.34269C9.5345 8.18759 10.2202 8.87331 11.0651 8.87331H15.1916V16.4651C15.1916 16.7468 14.959 16.9794 14.6774 16.9794Z" fill="#FAA700"/>
<path d="M7.24414 11.1753H12.7543ZM7.24414 14.1018H12.7543Z" fill="#FAA700"/>
<path d="M7.24414 11.1753H12.7543M7.24414 14.1018H12.7543" stroke="#FAA700" stroke-width="0.74449" stroke-linecap="round" stroke-linejoin="round"/>
</svg>
