<svg width="20" height="21" viewBox="0 0 20 21" fill="none" xmlns="http://www.w3.org/2000/svg">
<path fill-rule="evenodd" clip-rule="evenodd" d="M19.675 3.79766L17.1625 6.34766L17.15 6.32264C15.9125 7.58517 14.9875 7.87264 13.1875 7.68517L11.9 8.98517C12.35 9.81015 12.2375 10.8727 11.55 11.5727C10.7125 12.4352 9.32498 12.4352 8.46249 11.5977C7.6 10.7601 7.58747 9.37268 8.43747 8.51015C9.12498 7.81015 10.175 7.68517 11.0125 8.12264L12.3 6.82264C12.0875 5.02264 12.35 4.09766 13.5875 2.83516L16.1 0.285156L16.8 3.16016L19.675 3.79766ZM13.7376 9.01015H14.0751V9.03513C14.5376 9.03513 14.9501 8.98513 15.3376 8.89762C15.4251 9.28513 15.4751 9.67264 15.4751 10.0851C15.4751 13.1101 13.0251 15.5601 10.0001 15.5601C6.97506 15.5601 4.52506 13.1101 4.52506 10.0851C4.52506 7.06015 6.97506 4.61015 10.0001 4.61015C10.3751 4.61015 10.7501 4.64762 11.1001 4.72264C11.0001 5.21015 10.9626 5.73513 11.0001 6.32264C10.6751 6.23513 10.3501 6.17264 10.0001 6.17264C7.85008 6.17264 6.10008 7.92264 6.10008 10.0726C6.10008 12.2226 7.85008 13.9726 10.0001 13.9726C12.1501 13.9726 13.9001 12.2226 13.9001 10.0726C13.9001 9.69762 13.8376 9.34762 13.7376 9.01015ZM17.2 7.97264C17.4875 7.76015 17.7625 7.51015 18.05 7.22264L18.7 6.56015C19.125 7.64766 19.375 8.82264 19.375 10.0601C19.375 15.2351 15.175 19.4352 10 19.4352C4.82498 19.4352 0.625 15.2351 0.625 10.0601C0.625 4.88513 4.82498 0.685148 10 0.685148C11.175 0.685148 12.3 0.910148 13.3375 1.31015L12.7 1.96015C12.4125 2.24765 12.175 2.53515 11.9625 2.82265C11.3375 2.66015 10.675 2.56015 10 2.56015C5.86249 2.56015 2.5 5.92264 2.5 10.0601C2.5 14.1977 5.86249 17.5601 10 17.5601C14.1375 17.5601 17.5 14.1977 17.5 10.0601C17.5 9.33513 17.3875 8.63513 17.2 7.97264Z" fill="#0A85D1"/>
</svg>
