<svg width="26" height="27" viewBox="0 0 26 27" fill="none" xmlns="http://www.w3.org/2000/svg">
<path d="M18.5819 13.7163L23.8631 18.9976L18.5819 24.2788L16.8594 22.5563L19.1994 20.2163H16.2987C14.7306 20.2163 13.5728 19.6232 12.6628 18.3435L11.5619 16.8038L13.0609 14.7076L14.6453 16.9297C15.1003 17.5676 15.5147 17.7788 16.2987 17.7788H19.1994L16.8594 15.4388L18.5819 13.7163ZM16.2987 8.84131H19.1994L16.8594 11.1813L18.5819 12.9038L23.8631 7.62256L18.5819 2.34131L16.8594 4.06381L19.1994 6.40381H16.2987C14.7306 6.40381 13.5728 6.99693 12.6628 8.27662L6.48375 16.9297C6.02875 17.5676 5.61437 17.7788 4.83031 17.7788H2.44156V20.2163H4.83031C6.39844 20.2163 7.55625 19.6232 8.46625 18.3435L14.6453 9.69037C15.1003 9.05256 15.5147 8.84131 16.2987 8.84131ZM6.47969 9.69037L8.06406 11.9126L9.56312 9.81631L8.46219 8.27662C7.54812 7.001 6.39437 6.40381 4.82625 6.40381H2.4375V8.84131H4.82625C5.60625 8.84131 6.02469 9.05662 6.47969 9.69037Z" fill="#0A85D1"/>
</svg>
