<svg width="26" height="27" viewBox="0 0 26 27" fill="none" xmlns="http://www.w3.org/2000/svg">
<path d="M12.9569 21.6633C14.2292 21.6633 15.4269 21.5108 16.551 21.2066C17.6312 20.9214 18.6769 20.5186 19.6693 20.0054C20.5679 19.5361 21.4192 18.9812 22.2112 18.3483C22.9019 17.8033 23.5437 17.199 24.1291 16.5422C24.6569 15.9347 25.0565 15.3722 25.3303 14.8574C25.6094 14.3365 25.7489 13.9171 25.7489 13.6007C25.7489 13.2844 25.6094 12.8684 25.3303 12.3527C25.0565 11.8379 24.6569 11.2798 24.1291 10.6775C23.5456 10.0159 22.9037 9.40825 22.2112 8.86178C21.418 8.22858 20.5632 7.67663 19.6597 7.21425C18.6717 6.69632 17.629 6.29023 16.551 6.00352C15.3781 5.69309 14.1693 5.53979 12.9561 5.54765C11.7081 5.54765 10.5233 5.69932 9.40013 6.00352C8.28213 6.30772 7.24906 6.71158 6.30006 7.21425C5.3961 7.68101 4.53858 8.23267 3.73906 8.86178C3.04104 9.40831 2.39311 10.0159 1.80293 10.6775C1.276 11.2798 0.869529 11.8371 0.584396 12.3527C0.305329 12.8684 0.164062 13.2844 0.164062 13.6007C0.164062 13.9171 0.304463 14.3357 0.583529 14.8574C0.869529 15.3731 1.27513 15.9347 1.80293 16.5422C2.3368 17.1445 2.979 17.7469 3.7304 18.3483C4.53086 18.9784 5.38789 19.5331 6.29053 20.0054C7.27749 20.5165 8.31691 20.9193 9.3906 21.2066C10.5138 21.5108 11.7029 21.6633 12.9561 21.6633H12.9569ZM12.9569 19.8659C11.9637 19.8659 11.0113 19.7445 10.0987 19.5027C9.21699 19.27 8.36213 18.9455 7.54806 18.5347C6.79407 18.156 6.07182 17.7172 5.38833 17.2225C4.80298 16.7905 4.24922 16.3173 3.73126 15.8064C3.26586 15.3349 2.90533 14.9033 2.6514 14.5125C2.40266 14.1207 2.27873 13.8165 2.27873 13.5999C2.27873 13.4196 2.40266 13.144 2.6514 12.7713C2.90533 12.3987 3.26586 11.9766 3.73126 11.5051C4.84515 10.3778 6.13407 9.438 7.54806 8.72225C8.3609 8.29917 9.21575 7.96223 10.0987 7.71692C11.0296 7.46008 11.9912 7.33178 12.9569 7.33558C13.9501 7.33558 14.9 7.46212 15.8057 7.71692C16.7122 7.97085 17.5624 8.30625 18.3571 8.72225C19.151 9.13218 19.8712 9.57852 20.5169 10.063C21.1087 10.5004 21.6659 10.9828 22.1835 11.506C22.6489 11.9775 23.0059 12.3995 23.2538 12.7713C23.5086 13.144 23.6351 13.4213 23.6351 13.6007C23.6351 13.8174 23.5086 14.1216 23.2538 14.5133C23.0059 14.9033 22.6489 15.3358 22.1835 15.8073C21.0607 16.9135 19.7691 17.8341 18.3571 18.5347C17.5624 18.9385 16.7122 19.2609 15.8057 19.5027C14.9 19.7454 13.9501 19.8667 12.9569 19.8667V19.8659ZM12.9656 18.6179C13.6343 18.6224 14.2968 18.4896 14.9121 18.2279C15.5096 17.9684 16.0529 17.5988 16.5137 17.1385C16.9704 16.6766 17.3367 16.1334 17.5936 15.5369C17.8536 14.9285 17.9845 14.2837 17.9845 13.6007C17.9878 12.9413 17.8594 12.2879 17.6069 11.6788C17.3543 11.0696 16.9827 10.5171 16.5137 10.0535C16.0554 9.59493 15.5111 9.23122 14.9121 8.98312C14.2971 8.72113 13.6349 8.5881 12.9665 8.59225C12.2889 8.58602 11.6173 8.71875 10.9931 8.98225C10.394 9.23061 9.84976 9.59462 9.39146 10.0535C8.93051 10.5086 8.56333 11.0498 8.31073 11.6464C8.05412 12.2661 7.92445 12.9309 7.9294 13.6016C7.9294 14.2845 8.0594 14.9293 8.3194 15.5377C8.58026 16.1401 8.9408 16.6731 9.40013 17.1393C9.85946 17.5987 10.3899 17.9618 10.9922 18.2287C11.5997 18.4887 12.2575 18.6179 12.9656 18.6179ZM12.9569 15.2292C12.5037 15.2292 12.1189 15.0689 11.8025 14.7456C11.6503 14.5966 11.5298 14.4184 11.4482 14.2216C11.3666 14.0249 11.3255 13.8137 11.3276 13.6007C11.3243 13.3876 11.3648 13.176 11.4465 12.9791C11.5282 12.7822 11.6493 12.6041 11.8025 12.4559C12.1189 12.1387 12.5045 11.9809 12.9569 11.9809C13.1702 11.9775 13.382 12.0179 13.579 12.0996C13.7761 12.1813 13.9543 12.3026 14.1027 12.4559C14.4251 12.7722 14.5863 13.1535 14.5863 13.5999C14.5863 14.0419 14.4251 14.4232 14.1027 14.7456C13.9556 14.9013 13.7779 15.0247 13.5807 15.1081C13.3834 15.1915 13.171 15.233 12.9569 15.2301V15.2292Z" fill="#0A85D1"/>
</svg>
