<svg width="93" height="32" viewBox="0 0 93 32" fill="none" xmlns="http://www.w3.org/2000/svg">
<g clip-path="url(#clip0_27_1008)">
<path d="M1.92533 1.38092L19.632 0.0732338C21.8069 -0.113427 22.3659 0.0124358 23.7333 1.00654L29.3856 4.98827C30.3179 5.67305 30.6283 5.85971 30.6283 6.60528V28.4424C30.6283 29.8109 30.1312 30.6205 28.3915 30.7442L7.82933 31.989C6.52373 32.0508 5.90187 31.8642 5.21813 30.9927L1.056 25.5806C0.309333 24.5844 0 23.8388 0 22.9674V3.55685C0 2.43796 0.497067 1.50465 1.92533 1.38092Z" fill="white"/>
<path fill-rule="evenodd" clip-rule="evenodd" d="M19.632 0.0732338L1.92533 1.38092C0.497067 1.50465 0 2.43796 0 3.55685V22.9674C0 23.8388 0.309333 24.5844 1.056 25.5806L5.21813 30.9927C5.90187 31.8642 6.52373 32.0508 7.82933 31.989L28.3915 30.7442C30.1301 30.6205 30.6283 29.8109 30.6283 28.4424V6.60528C30.6283 5.89811 30.3488 5.69438 29.5264 5.09067C29.4791 5.05658 29.4318 5.02245 29.3845 4.98827L23.7333 1.00654C22.3659 0.0124358 21.8069 -0.113427 19.632 0.0732338ZM8.2944 6.24796C6.61547 6.36102 6.23467 6.38662 5.28107 5.61118L2.85653 3.68271C2.61013 3.43312 2.73387 3.12167 3.35467 3.0598L20.3765 1.81611C21.8059 1.69131 22.5504 2.18943 23.1093 2.62462L26.0288 4.73974C26.1536 4.80268 26.464 5.17493 26.0907 5.17493L8.512 6.23303L8.2944 6.24796ZM6.33707 28.2558V9.71771C6.33707 8.90814 6.5856 8.53482 7.33013 8.47189L27.52 7.29006C28.2048 7.2282 28.5141 7.66338 28.5141 8.47189V26.8862C28.5141 27.6958 28.3893 28.3806 27.2715 28.4424L7.95093 29.5624C6.83307 29.6242 6.33707 29.252 6.33707 28.2558ZM25.4091 10.7118C25.5328 11.2718 25.4091 11.8318 24.8491 11.8958L23.9179 12.0803V25.7673C23.1093 26.2025 22.3648 26.451 21.7429 26.451C20.7488 26.451 20.5003 26.1396 19.7557 25.2073L13.6661 15.6268V24.8959L15.5925 25.3321C15.5925 25.3321 15.5925 26.4521 14.0384 26.4521L9.7536 26.7006C9.6288 26.451 9.7536 25.8292 10.1877 25.7054L11.3067 25.3951V13.1395L9.7536 13.0136C9.6288 12.4536 9.9392 11.6451 10.8096 11.5822L15.4069 11.2729L21.7429 20.9771V12.3918L20.128 12.2062C20.0032 11.5203 20.5003 11.0222 21.1211 10.9614L25.4091 10.7118Z" fill="black"/>
<path d="M44.1962 22.6675V14.2304H44.3423L50.4266 22.6675H52.3423V10.2689H50.2122V18.6975H50.0661L43.9818 10.2689H42.0586V22.6664H44.1973L44.1962 22.6675ZM58.3626 22.8573C61.1733 22.8573 62.8831 21.0184 62.8831 17.9679C62.8831 14.9259 61.1647 13.0784 58.3626 13.0784C55.5701 13.0784 53.8431 14.9344 53.8431 17.9679C53.8431 21.0184 55.5445 22.8573 58.3626 22.8573ZM58.3626 21.0696C56.8767 21.0696 56.0266 19.9358 56.0266 17.9679C56.0266 16.0085 56.8767 14.8661 58.3626 14.8661C59.841 14.8661 60.6911 16.0085 60.6911 17.9679C60.6911 19.9358 59.8495 21.0696 58.3626 21.0696ZM64.8298 10.9655V13.328H63.3439V15.0293H64.8298V20.1587C64.8298 21.9805 65.6895 22.7112 67.8463 22.7112C68.2581 22.7112 68.6538 22.6685 68.9631 22.6077V20.9406C68.705 20.9662 68.5418 20.9833 68.241 20.9833C67.3482 20.9833 66.9525 20.5715 66.9525 19.6436V15.0293H68.9631V13.328H66.9525V10.9644L64.8298 10.9655ZM70.2399 22.6675H72.3626V13.2672H70.2399V22.6675ZM71.297 11.7132C72.001 11.7132 72.5685 11.1446 72.5685 10.4321C72.5685 9.71856 72.0021 9.14258 71.297 9.14258C70.6015 9.14258 70.0255 9.71856 70.0255 10.4321C70.0255 11.1446 70.6015 11.7121 71.297 11.7121V11.7132ZM78.1855 22.8573C80.9951 22.8573 82.705 21.0184 82.705 17.9679C82.705 14.9259 80.9866 13.0784 78.1855 13.0784C75.3919 13.0784 73.665 14.9344 73.665 17.9679C73.665 21.0184 75.3663 22.8573 78.1855 22.8573ZM78.1855 21.0696C76.6986 21.0696 75.8474 19.9358 75.8474 17.9679C75.8474 16.0085 76.6986 14.8661 78.1855 14.8661C79.6629 14.8661 80.5141 16.0085 80.5141 17.9679C80.5141 19.9358 79.6714 21.0696 78.1855 21.0696ZM83.9733 22.6675H86.1045V17.1946C86.1045 15.8112 86.9045 14.9344 88.1749 14.9344C89.473 14.9344 90.0735 15.6565 90.0735 17.0911V22.6675H92.2058V16.5845C92.2058 14.3413 91.0623 13.0784 88.9663 13.0784C87.5647 13.0784 86.6197 13.7227 86.1727 14.7712H86.0266V13.2672H83.9733V22.6675Z" fill="#121212"/>
</g>
<defs>
<clipPath id="clip0_27_1008">
<rect width="92.8" height="32" fill="white"/>
</clipPath>
</defs>
</svg>
