<svg width="26" height="27" viewBox="0 0 26 27" fill="none" xmlns="http://www.w3.org/2000/svg">
<path d="M13.56 22.8297C14.8874 22.8297 16.0466 22.6795 17.0377 22.3791C18.0348 22.0848 18.8096 21.6734 19.3622 21.1449C19.9208 20.6163 20.2001 20.0037 20.2001 19.3069C20.2001 18.8444 20.122 18.463 19.9658 18.1627C19.8157 17.8564 19.6415 17.5921 19.4432 17.3699C19.2511 17.1476 19.0769 16.9344 18.9207 16.7302C18.7706 16.5199 18.6954 16.2827 18.6954 16.0184C18.6954 15.7721 18.8215 15.5529 19.0738 15.3607C19.3261 15.1625 19.6504 14.9673 20.0469 14.7751C20.4493 14.5829 20.8728 14.3726 21.3172 14.1444C21.7617 13.9102 22.1822 13.6309 22.5785 13.3066C22.981 12.9821 23.3083 12.5947 23.5606 12.1443C23.8129 11.6878 23.939 11.1413 23.939 10.5045C23.939 9.56155 23.7048 8.70564 23.2363 7.93682C22.7738 7.168 22.1131 6.5073 21.2541 5.95471C20.4013 5.40213 19.3801 4.97868 18.1909 4.68437C17.0016 4.38404 15.6802 4.23389 14.2267 4.23389C12.3467 4.23389 10.6319 4.46212 9.0822 4.91861C7.53858 5.36909 6.20817 6.01177 5.09098 6.84666C3.9798 7.68155 3.12089 8.67861 2.51424 9.83784C1.9136 10.9911 1.61328 12.2704 1.61328 13.6759C1.61328 15.0454 1.89859 16.2917 2.46919 17.4149C3.0398 18.5321 3.85367 19.4931 4.91079 20.298C5.97392 21.1088 7.23526 21.7335 8.6948 22.172C10.1543 22.6105 11.7761 22.8297 13.56 22.8297ZM13.56 20.9286C12.0464 20.9286 10.6709 20.7545 9.43362 20.4061C8.20229 20.0637 7.14516 19.5742 6.26222 18.9375C5.37929 18.2948 4.69756 17.529 4.21705 16.6401C3.74255 15.7511 3.50529 14.7631 3.50529 13.6759C3.50529 12.5407 3.75756 11.5106 4.26209 10.5856C4.77264 9.66065 5.49942 8.86481 6.44241 8.1981C7.38541 7.53139 8.51465 7.02084 9.82999 6.66647C11.1454 6.30609 12.611 6.1259 14.2267 6.1259C15.8003 6.1259 17.1728 6.30909 18.3441 6.67548C19.5153 7.04187 20.4223 7.55541 21.0649 8.21611C21.7137 8.87081 22.038 9.63363 22.038 10.5045C22.038 11.0091 21.9119 11.4356 21.6596 11.7839C21.4073 12.1262 21.0799 12.4205 20.6775 12.6669C20.2812 12.9131 19.8577 13.1413 19.4072 13.3516C18.9627 13.5558 18.5392 13.772 18.1368 14.0003C17.7344 14.2285 17.4071 14.4958 17.1548 14.8021C16.9025 15.1084 16.7764 15.4898 16.7764 15.9463C16.7764 16.3367 16.8515 16.6671 17.0016 16.9374C17.1578 17.2077 17.335 17.451 17.5332 17.6672C17.7314 17.8834 17.9056 18.0996 18.0557 18.3158C18.2119 18.5261 18.29 18.7693 18.29 19.0456C18.29 19.6163 17.8575 20.0727 16.9927 20.415C16.1337 20.7574 14.9895 20.9286 13.56 20.9286ZM12.7852 18.8654C13.2596 18.8654 13.6891 18.7543 14.0735 18.5321C14.4639 18.3038 14.7702 17.9975 14.9925 17.6131C15.2207 17.2287 15.3349 16.7963 15.3349 16.3157C15.3349 15.8532 15.2178 15.4298 14.9835 15.0454C14.7552 14.661 14.4489 14.3546 14.0646 14.1264C13.6801 13.8921 13.2537 13.7751 12.7852 13.7751C12.3226 13.7751 11.8992 13.8921 11.5148 14.1264C11.1304 14.3546 10.8211 14.661 10.5868 15.0454C10.3585 15.4298 10.2445 15.8532 10.2445 16.3157C10.2445 16.7842 10.3585 17.2137 10.5868 17.6041C10.8211 17.9885 11.1304 18.2948 11.5148 18.5231C11.8992 18.7513 12.3226 18.8654 12.7852 18.8654ZM12.7852 17.6852C12.5329 17.6852 12.3046 17.6251 12.1005 17.505C11.8962 17.3849 11.731 17.2196 11.6049 17.0095C11.4848 16.7992 11.4247 16.568 11.4247 16.3157C11.4247 16.0335 11.4878 15.7932 11.6139 15.595C11.7401 15.3967 11.9052 15.2436 12.1094 15.1355C12.3137 15.0214 12.5329 14.9643 12.7672 14.9643C13.0074 14.9583 13.2326 15.0093 13.4428 15.1174C13.6531 15.2255 13.8243 15.3788 13.9564 15.5769C14.0885 15.7751 14.1546 16.0214 14.1546 16.3157C14.1546 16.568 14.0946 16.7992 13.9744 17.0095C13.8543 17.2196 13.6891 17.3849 13.4789 17.505C13.2747 17.6251 13.0434 17.6852 12.7852 17.6852ZM6.5235 14.8922C6.93794 14.8922 7.28932 14.745 7.57762 14.4507C7.86593 14.1504 8.01008 13.796 8.01008 13.3876C8.01008 12.9732 7.86593 12.6218 7.57762 12.3335C7.28932 12.0392 6.93794 11.892 6.5235 11.892C6.12108 11.892 5.7727 12.0392 5.47839 12.3335C5.18408 12.6218 5.03692 12.9732 5.03692 13.3876C5.03692 13.796 5.18408 14.1504 5.47839 14.4507C5.7727 14.745 6.12108 14.8922 6.5235 14.8922ZM9.76692 12.0362C10.2835 12.0362 10.722 11.856 11.0824 11.4956C11.4487 11.1352 11.632 10.6907 11.632 10.1622C11.632 9.65164 11.4487 9.21919 11.0824 8.86481C10.722 8.50442 10.2835 8.32423 9.76692 8.32423C9.24441 8.32423 8.79989 8.50442 8.43354 8.86481C8.07315 9.21919 7.89296 9.65164 7.89296 10.1622C7.89296 10.6907 8.07315 11.1352 8.43354 11.4956C8.79989 11.856 9.24441 12.0362 9.76692 12.0362ZM14.2717 10.6037C14.6862 10.6037 15.0375 10.4565 15.3259 10.1622C15.6202 9.86787 15.7673 9.5135 15.7673 9.09906C15.7673 8.67861 15.6202 8.32423 15.3259 8.03593C15.0375 7.74161 14.6862 7.59445 14.2717 7.59445C13.8573 7.59445 13.4999 7.74161 13.1996 8.03593C12.9053 8.33024 12.7581 8.68462 12.7581 9.09906C12.7581 9.5135 12.9053 9.86787 13.1996 10.1622C13.4999 10.4565 13.8573 10.6037 14.2717 10.6037ZM18.3171 11.1713C18.6534 11.1713 18.9387 11.0541 19.173 10.8199C19.4132 10.5797 19.5334 10.2883 19.5334 9.94595C19.5334 9.6156 19.4132 9.3303 19.173 9.09004C18.9387 8.84979 18.6534 8.72966 18.3171 8.72966C17.9807 8.72966 17.6894 8.84979 17.4431 9.09004C17.2028 9.3303 17.0827 9.6156 17.0827 9.94595C17.0827 10.2883 17.2028 10.5797 17.4431 10.8199C17.6894 11.0541 17.9807 11.1713 18.3171 11.1713Z" fill="#0A85D1"/>
</svg>
