<svg width="26" height="27" viewBox="0 0 26 27" fill="none" xmlns="http://www.w3.org/2000/svg">
<g clip-path="url(#clip0_27_692)">
<path d="M3.03687 25.7067C3.85978 25.7089 4.54776 25.0374 4.55055 24.1895L4.57238 17.5689C4.9468 17.4577 5.82049 17.1856 7.04239 17.1889C11.4437 17.2007 14.7154 19.5036 19.1166 19.5154C20.9869 19.5204 22.11 19.2366 23.0965 18.7779C24.0456 18.3316 24.5221 17.4975 24.5261 16.313L24.5658 4.25608C24.5693 3.20874 23.8485 2.49612 22.8011 2.49332C21.9408 2.49102 20.8671 2.89962 19.0841 2.89485C14.82 2.88347 11.4112 0.580176 7.0099 0.568426C5.20199 0.563598 4.16624 0.822671 3.05488 1.33091C2.13082 1.75237 1.60502 2.39933 1.60128 3.53394L1.53321 24.1815C1.53046 25.0168 2.21396 25.7045 3.03687 25.7067ZM4.73053 11.1979L4.74246 7.58211C5.04264 7.29613 5.80436 6.94905 7.0886 6.95248C7.45018 6.95344 8.22306 7.00538 8.79632 7.09419L8.8072 3.79008C10.2778 3.99351 11.6604 4.43359 13.0804 4.86131L13.0695 8.15295C14.4396 8.60547 15.9969 8.98369 17.3429 9.14939L17.3538 5.84525C17.8773 5.909 18.4132 5.94783 18.9618 5.9493C19.9219 5.95186 20.7701 5.86684 21.4065 5.69399L21.3957 8.98559C20.8591 9.13379 19.9734 9.25617 18.951 9.25339C18.577 9.25244 18.0284 9.23849 17.3429 9.14939L17.331 12.7652C18.0538 12.8544 18.6897 12.8685 19.1635 12.8698C20.1236 12.8724 20.7972 12.7744 21.3837 12.6139L21.3732 15.8058C21.098 16.0918 20.2989 16.4264 19.0021 16.4229C18.4411 16.4214 17.8927 16.3576 17.3194 16.2688L17.331 12.7652C15.7981 12.5492 14.4775 12.2214 13.0576 11.7688L13.0463 15.1851C11.7011 14.7825 10.3058 14.3923 8.7728 14.2261L8.78439 10.71C8.3108 10.6464 7.81231 10.5703 7.07668 10.5683C5.79244 10.5648 5.03072 10.9119 4.73053 11.1979ZM8.78439 10.71C10.3422 10.9386 11.5504 11.3284 13.0576 11.7688L13.0695 8.15295C11.6494 7.7377 10.3666 7.32282 8.79632 7.09419L8.78439 10.71Z" fill="#0A85D1"/>
</g>
<defs>
<clipPath id="clip0_27_692">
<rect width="26" height="26" fill="white" transform="translate(0 0.129883)"/>
</clipPath>
</defs>
</svg>
