<svg width="26" height="27" viewBox="0 0 26 27" fill="none" xmlns="http://www.w3.org/2000/svg">
<g clip-path="url(#clip0_27_704)">
<path d="M12.8132 25.7966C19.8115 25.8152 25.574 20.075 25.597 13.0767C25.6201 6.09039 19.8835 0.319479 12.8972 0.300827C5.89885 0.282143 0.136381 6.02236 0.113351 13.0086C0.090281 20.007 5.82686 25.7779 12.8132 25.7966ZM11.508 19.0963C10.965 19.0949 10.5435 18.8524 10.1589 18.3808L7.33449 14.9947C7.05809 14.6561 6.95049 14.3542 6.95164 14.0042C6.9541 13.2562 7.55936 12.6665 8.29539 12.6685C8.72975 12.6697 9.06708 12.8394 9.39158 13.2265L11.4826 15.8263L16.213 8.35786C16.5284 7.85192 16.9274 7.59959 17.398 7.60085C18.122 7.60278 18.7839 8.13546 18.7814 8.88359C18.7804 9.18519 18.6586 9.51069 18.4404 9.82378L12.8135 18.3759C12.4982 18.8335 12.0268 19.0977 11.508 19.0963Z" fill="#F8792A"/>
</g>
<defs>
<clipPath id="clip0_27_704">
<rect width="26" height="26" fill="white" transform="translate(0 0.129883)"/>
</clipPath>
</defs>
</svg>
