<svg width="26" height="27" viewBox="0 0 26 27" fill="none" xmlns="http://www.w3.org/2000/svg">
<mask id="mask0_27_717" style="mask-type:luminance" maskUnits="userSpaceOnUse" x="0" y="0" width="26" height="26">
<path d="M21.4592 0.538086H4.24995C2.07751 0.538086 0.316406 2.29919 0.316406 4.47163V21.6809C0.316406 23.8533 2.07751 25.6145 4.24995 25.6145H21.4592C23.6317 25.6145 25.3928 23.8533 25.3928 21.6809V4.47163C25.3928 2.29919 23.6317 0.538086 21.4592 0.538086Z" fill="white"/>
</mask>
<g mask="url(#mask0_27_717)">
<path d="M10.0533 7.79768H15.6458C16.2388 7.79768 16.5855 7.42359 16.5855 6.80321V5.84529C16.5855 5.21579 16.2388 4.85086 15.6458 4.85086H14.998C14.9159 3.73783 13.9945 2.84375 12.8541 2.84375C11.7136 2.84375 10.7922 3.73783 10.7101 4.85086H10.0533C9.46934 4.85086 9.12265 5.21579 9.12265 5.84529V6.80321C9.12265 7.42359 9.46934 7.79768 10.0533 7.79768ZM12.8541 5.75406C12.3979 5.75406 12.0239 5.37088 12.0239 4.93297C12.0239 4.47681 12.3979 4.11188 12.8541 4.11188C13.3102 4.11188 13.6752 4.47681 13.6752 4.93297C13.6752 5.37088 13.3102 5.75406 12.8541 5.75406ZM8.01873 25.4784H17.6894C19.7147 25.4784 20.9008 24.2833 20.9008 22.2306V8.47279C20.9008 6.4383 19.733 5.21579 17.7441 5.21579H17.5525C17.6346 5.39825 17.6711 5.61721 17.6711 5.84529V6.73022C17.6711 7.00391 17.6346 7.25028 17.5434 7.46925H17.6803C18.3098 7.46925 18.6473 7.87067 18.6473 8.49105V22.2032C18.6473 22.851 18.2733 23.2341 17.5981 23.2341H8.10085C7.42574 23.2341 7.05172 22.851 7.05172 22.2032V8.49105C7.05172 7.87067 7.39841 7.46925 8.02786 7.46925H8.16471C8.07352 7.25028 8.03699 7.00391 8.03699 6.73022V5.84529C8.03699 5.61721 8.07352 5.39825 8.14651 5.21579H7.964C5.97516 5.21579 4.80739 6.4383 4.80739 8.47279V22.2306C4.80739 24.2833 5.9934 25.4784 8.01873 25.4784ZM9.32336 13.1986C9.84342 13.1986 10.254 12.7881 10.254 12.268C10.254 11.7572 9.84342 11.3466 9.32336 11.3466C8.82162 11.3466 8.40194 11.7663 8.40194 12.268C8.40194 12.779 8.82162 13.1986 9.32336 13.1986ZM11.9417 13.0435H16.5399C16.9686 13.0435 17.3153 12.6968 17.3153 12.268C17.3153 11.8483 16.9686 11.4926 16.5399 11.4926H11.9417C11.5129 11.4926 11.1663 11.8483 11.1663 12.268C11.1663 12.6968 11.5129 13.0435 11.9417 13.0435ZM9.32336 16.41C9.84342 16.41 10.254 15.9994 10.254 15.4794C10.254 14.9685 9.83429 14.5671 9.32336 14.5671C8.81249 14.5671 8.40194 14.9776 8.40194 15.4794C8.40194 15.9994 8.81249 16.41 9.32336 16.41ZM11.9417 16.264H16.5399C16.9778 16.264 17.3153 15.9173 17.3153 15.4794C17.3153 15.0597 16.9686 14.713 16.5399 14.713H11.9417C11.5129 14.713 11.1663 15.0597 11.1663 15.4794C11.1663 15.9173 11.5038 16.264 11.9417 16.264ZM9.32336 19.7947C9.84342 19.7947 10.254 19.3933 10.254 18.8732C10.254 18.3532 9.84342 17.9518 9.32336 17.9518C8.82162 17.9518 8.40194 18.3624 8.40194 18.8732C8.40194 19.3842 8.82162 19.7947 9.32336 19.7947ZM11.9417 19.6487H16.5399C16.9686 19.6487 17.3153 19.302 17.3153 18.8732C17.3153 18.4445 16.9686 18.1069 16.5399 18.1069H11.9417C11.5129 18.1069 11.1663 18.4445 11.1663 18.8732C11.1663 19.302 11.5129 19.6487 11.9417 19.6487ZM5.18144 41.3872H20.5176C22.6068 41.3872 23.7381 40.2559 23.7381 38.185V32.9664C23.7381 31.6709 23.5738 31.1235 22.9808 30.3754L20.2347 26.8083C19.067 25.303 18.4922 24.8559 16.7862 24.8559H8.91281C7.2159 24.8559 6.64117 25.303 5.46426 26.8083L2.71817 30.3754C2.13428 31.1327 1.96094 31.6709 1.96094 32.9664V38.185C1.96094 40.2559 3.10134 41.3872 5.18144 41.3872ZM12.8541 35.2837C11.4491 35.2837 10.5915 34.3076 10.5915 33.1307V33.003C10.5915 32.565 10.3361 32.1453 9.78869 32.1453H4.78002C4.39684 32.1453 4.3421 31.8352 4.52456 31.5889L7.76329 27.3739C8.10085 26.936 8.50226 26.7353 9.04059 26.7353H16.6585C17.1967 26.7353 17.5981 26.936 17.9357 27.3739L21.1653 31.5889C21.3569 31.8352 21.2931 32.1453 20.919 32.1453H15.9104C15.363 32.1453 15.1075 32.565 15.1075 33.003V33.1307C15.1075 34.3076 14.2499 35.2837 12.8541 35.2837Z" fill="#F5A300"/>
</g>
</svg>
