<svg width="26" height="27" viewBox="0 0 26 27" fill="none" xmlns="http://www.w3.org/2000/svg">
<path d="M24.469 14.7187C24.4634 13.633 22.9886 12.662 21.091 12.6569L17.2228 12.6466C16.7119 12.6452 16.5298 12.5352 16.2116 12.206L9.94773 5.50191C9.73858 5.28239 9.50179 5.17228 9.23723 5.17157L7.88694 5.16797C7.64977 5.16734 7.50309 5.3859 7.62085 5.63255L10.864 12.6113L6.11822 13.1187L4.43092 10.1948C4.29483 9.96631 4.09445 9.86542 3.8025 9.86466L3.37372 9.86352C3.10915 9.86282 2.92608 10.0448 2.92524 10.3003L2.89649 19.022C2.89564 19.2774 3.0775 19.4604 3.34208 19.4611L3.77087 19.4622C4.06281 19.463 4.26388 19.3541 4.40145 19.1355L6.10799 16.2206L10.8503 16.7533L7.56131 23.7055C7.44183 23.9607 7.58712 24.18 7.82429 24.1806L9.17451 24.1843C9.43908 24.185 9.67669 24.0761 9.88723 23.8577L16.1951 17.1872C16.5156 16.8505 16.6983 16.7507 17.2093 16.752L21.0775 16.7623C22.9751 16.7674 24.4562 15.8043 24.469 14.7187Z" fill="#EA4E43"/>
</svg>
